<svg width="543" height="188" viewBox="0 0 543 188" fill="none" xmlns="http://www.w3.org/2000/svg">
<path d="M59.471 100.954C61.5431 102.247 62.2117 104.2 61.4771 106.816C55.2736 128.97 51.4498 142.349 50.0057 146.953C49.3841 148.935 47.7547 149.929 45.1176 149.936C32.0388 149.98 18.96 149.882 5.88118 149.644C3.69615 149.606 2.17667 149.192 1.32275 148.402C0.00419749 147.185 -0.328578 145.369 0.32442 142.954C3.45756 131.338 6.71313 119.759 10.0911 108.218C10.11 108.143 10.336 107.183 10.7693 105.339C11.1272 103.821 11.686 102.629 12.4457 101.764C13.3687 100.722 14.524 100.202 15.9116 100.202H56.8528C57.7761 100.202 58.6833 100.463 59.471 100.954Z" fill="url(#paint0_linear_2_52)"/>
<path d="M50.7588 186.817C49.6977 186.153 49.0823 185.237 48.9128 184.07C48.8186 183.418 48.963 182.402 49.346 181.022C56.5102 155.236 63.7497 129.472 71.0645 103.73C71.6359 101.723 72.8917 100.719 74.8318 100.719C101.912 100.688 128.99 100.672 156.064 100.672C158.394 100.672 159.772 101.597 160.199 103.448C160.412 104.376 160.255 105.794 159.728 107.7C152.708 133.204 145.582 158.676 138.348 184.117C137.972 185.441 137.319 186.416 136.39 187.043C135.749 187.476 134.685 187.702 133.197 187.721C107.805 187.978 82.4135 188.05 57.0219 187.937C56.9905 187.937 56.4599 187.956 55.4302 187.994C53.6596 188.056 52.1024 187.664 50.7588 186.817Z" fill="url(#paint1_linear_2_52)"/>
<path d="M128.488 39.949C129.172 38.8513 130.042 38.1707 131.097 37.9073C131.298 37.8571 132.334 37.8132 134.205 37.7756C146.957 37.5059 159.709 37.5184 172.462 37.8132C174.565 37.8634 176.022 38.3119 176.832 39.1586C178.019 40.4006 178.301 42.1663 177.679 44.4557C174.502 56.1851 171.225 67.8863 167.847 79.5592C166.993 82.5073 166.246 84.6054 165.605 85.8536C165.466 86.126 165.228 86.3401 164.937 86.4558C163.631 86.9952 162.149 87.2649 160.491 87.2649C148.561 87.2649 136.635 87.2649 124.711 87.2649C121.641 87.2649 119.512 86.8886 118.326 86.1359C116.272 84.8375 115.761 82.6798 116.79 79.6627C117.412 77.8437 117.732 76.8935 117.751 76.8119C120.953 65.3522 124.121 53.9992 127.254 42.7527C127.53 41.7554 127.942 40.8208 128.488 39.949Z" fill="url(#paint2_linear_2_52)"/>
<path d="M19.3964 86.1453C18.3353 85.4804 17.7199 84.5646 17.5504 83.3979C17.4562 82.7456 17.6006 81.7295 17.9836 80.3496C25.1478 54.5637 32.3873 28.7998 39.7021 3.0578C40.2735 1.05063 41.5293 0.0470459 43.4694 0.0470459C70.55 0.0156839 97.6275 0 124.702 0C127.031 0 128.409 0.925177 128.836 2.77554C129.05 3.70385 128.893 5.12142 128.366 7.02824C121.346 32.5319 114.219 58.0041 106.986 83.445C106.609 84.7685 105.956 85.7438 105.027 86.3711C104.387 86.8039 103.322 87.0297 101.834 87.0485C76.4427 87.3057 51.0511 87.3778 25.6595 87.2649C25.6281 87.2649 25.0975 87.2837 24.0678 87.3213C22.2972 87.3841 20.74 86.992 19.3964 86.1453Z" fill="url(#paint3_linear_2_52)"/>
<path d="M297.387 87.7891C297.387 90.1654 296.931 92.3952 296.02 94.4785C295.141 96.5618 293.92 98.3848 292.357 99.9473C290.795 101.51 288.972 102.747 286.889 103.658C284.805 104.537 282.576 104.977 280.199 104.977H275.219C272.842 104.977 270.596 104.537 268.48 103.658C266.397 102.747 264.574 101.51 263.012 99.9473C261.449 98.3848 260.212 96.5618 259.301 94.4785C258.422 92.3952 257.982 90.1654 257.982 87.7891V50.1914C257.982 47.8151 258.422 45.5853 259.301 43.502C260.212 41.4186 261.449 39.5957 263.012 38.0332C264.574 36.4707 266.397 35.25 268.48 34.3711C270.596 33.4596 272.842 33.0039 275.219 33.0039H280.199C282.576 33.0039 284.805 33.4596 286.889 34.3711C288.972 35.25 290.795 36.4707 292.357 38.0332C293.92 39.5957 295.141 41.4186 296.02 43.502C296.931 45.5853 297.387 47.8151 297.387 50.1914V53.0234L291.088 54V50.1914C291.088 48.6289 290.795 47.1803 290.209 45.8457C289.623 44.4785 288.826 43.2904 287.816 42.2812C286.807 41.2721 285.619 40.4746 284.252 39.8887C282.917 39.3027 281.469 39.0098 279.906 39.0098H275.512C273.949 39.0098 272.484 39.3027 271.117 39.8887C269.783 40.4746 268.594 41.2721 267.553 42.2812C266.544 43.2904 265.746 44.4785 265.16 45.8457C264.574 47.1803 264.281 48.6289 264.281 50.1914V87.7891C264.281 89.3516 264.574 90.8164 265.16 92.1836C265.746 93.5182 266.544 94.7064 267.553 95.748C268.594 96.7572 269.783 97.5547 271.117 98.1406C272.484 98.7266 273.949 99.0195 275.512 99.0195H279.906C281.469 99.0195 282.917 98.7266 284.252 98.1406C285.619 97.5547 286.807 96.7572 287.816 95.748C288.826 94.7064 289.623 93.5182 290.209 92.1836C290.795 90.8164 291.088 89.3516 291.088 87.7891V83.9805L297.387 85.0059V87.7891ZM342.846 90.2793C342.846 92.2975 342.455 94.2018 341.674 95.9922C340.925 97.7826 339.883 99.3451 338.549 100.68C337.214 102.014 335.652 103.072 333.861 103.854C332.071 104.602 330.167 104.977 328.148 104.977H324.145C322.126 104.977 320.222 104.602 318.432 103.854C316.641 103.072 315.079 102.014 313.744 100.68C312.41 99.3451 311.352 97.7826 310.57 95.9922C309.822 94.2018 309.447 92.2975 309.447 90.2793V67.7207C309.447 65.7025 309.822 63.7982 310.57 62.0078C311.352 60.2174 312.41 58.6549 313.744 57.3203C315.079 55.9857 316.641 54.944 318.432 54.1953C320.222 53.4141 322.126 53.0234 324.145 53.0234H328.148C330.167 53.0234 332.071 53.4141 333.861 54.1953C335.652 54.944 337.214 55.9857 338.549 57.3203C339.883 58.6549 340.925 60.2174 341.674 62.0078C342.455 63.7982 342.846 65.7025 342.846 67.7207V79.4883H315.453V90.6211C315.453 91.8255 315.681 92.9648 316.137 94.0391C316.592 95.0807 317.211 95.9922 317.992 96.7734C318.773 97.5547 319.685 98.1732 320.727 98.6289C321.801 99.0846 322.94 99.3125 324.145 99.3125H328.148C329.353 99.3125 330.476 99.0846 331.518 98.6289C332.592 98.1732 333.52 97.5547 334.301 96.7734C335.082 95.9922 335.701 95.0807 336.156 94.0391C336.612 92.9648 336.84 91.8255 336.84 90.6211V87.3008L342.846 88.2773V90.2793ZM336.84 67.3789C336.84 66.1745 336.612 65.0514 336.156 64.0098C335.701 62.9355 335.082 62.0078 334.301 61.2266C333.52 60.4453 332.592 59.8268 331.518 59.3711C330.476 58.9154 329.353 58.6875 328.148 58.6875H324.145C322.94 58.6875 321.801 58.9154 320.727 59.3711C319.685 59.8268 318.773 60.4453 317.992 61.2266C317.211 62.0078 316.592 62.9355 316.137 64.0098C315.681 65.0514 315.453 66.1745 315.453 67.3789V74.8008H336.84V67.3789ZM356.859 104V33.9805H362.865V104H356.859ZM410.326 90.2793C410.326 92.2975 409.936 94.2018 409.154 95.9922C408.406 97.7826 407.364 99.3451 406.029 100.68C404.695 102.014 403.132 103.072 401.342 103.854C399.551 104.602 397.647 104.977 395.629 104.977H391.625C389.607 104.977 387.702 104.602 385.912 103.854C384.122 103.072 382.559 102.014 381.225 100.68C379.89 99.3451 378.832 97.7826 378.051 95.9922C377.302 94.2018 376.928 92.2975 376.928 90.2793V67.7207C376.928 65.7025 377.302 63.7982 378.051 62.0078C378.832 60.2174 379.89 58.6549 381.225 57.3203C382.559 55.9857 384.122 54.944 385.912 54.1953C387.702 53.4141 389.607 53.0234 391.625 53.0234H395.629C397.647 53.0234 399.551 53.4141 401.342 54.1953C403.132 54.944 404.695 55.9857 406.029 57.3203C407.364 58.6549 408.406 60.2174 409.154 62.0078C409.936 63.7982 410.326 65.7025 410.326 67.7207V79.4883H382.934V90.6211C382.934 91.8255 383.161 92.9648 383.617 94.0391C384.073 95.0807 384.691 95.9922 385.473 96.7734C386.254 97.5547 387.165 98.1732 388.207 98.6289C389.281 99.0846 390.421 99.3125 391.625 99.3125H395.629C396.833 99.3125 397.956 99.0846 398.998 98.6289C400.072 98.1732 401 97.5547 401.781 96.7734C402.562 95.9922 403.181 95.0807 403.637 94.0391C404.092 92.9648 404.32 91.8255 404.32 90.6211V87.3008L410.326 88.2773V90.2793ZM404.32 67.3789C404.32 66.1745 404.092 65.0514 403.637 64.0098C403.181 62.9355 402.562 62.0078 401.781 61.2266C401 60.4453 400.072 59.8268 398.998 59.3711C397.956 58.9154 396.833 58.6875 395.629 58.6875H391.625C390.421 58.6875 389.281 58.9154 388.207 59.3711C387.165 59.8268 386.254 60.4453 385.473 61.2266C384.691 62.0078 384.073 62.9355 383.617 64.0098C383.161 65.0514 382.934 66.1745 382.934 67.3789V74.8008H404.32V67.3789ZM456.713 91.3047C456.713 93.3229 456.306 95.1784 455.492 96.8711C454.678 98.5312 453.572 99.9635 452.172 101.168C450.772 102.372 449.145 103.316 447.289 104C445.466 104.651 443.546 104.977 441.527 104.977H437.523C435.505 104.977 433.568 104.602 431.713 103.854C429.89 103.072 428.279 102.014 426.879 100.68C425.512 99.3451 424.405 97.7826 423.559 95.9922C422.745 94.2018 422.338 92.2975 422.338 90.2793V88.2773L428.344 87.3008V90.6211C428.344 91.8255 428.588 92.9648 429.076 94.0391C429.597 95.0807 430.281 95.9922 431.127 96.7734C431.973 97.5547 432.95 98.1732 434.057 98.6289C435.163 99.0846 436.319 99.3125 437.523 99.3125H441.527C442.732 99.3125 443.887 99.1335 444.994 98.7754C446.101 98.4173 447.077 97.9128 447.924 97.2617C448.803 96.5781 449.486 95.7643 449.975 94.8203C450.495 93.8763 450.756 92.8021 450.756 91.5977C450.756 89.8073 450.365 88.3424 449.584 87.2031C448.803 86.0638 447.761 85.1198 446.459 84.3711C445.189 83.5898 443.725 82.9551 442.064 82.4668C440.437 81.946 438.76 81.4414 437.035 80.9531C435.31 80.4323 433.617 79.8464 431.957 79.1953C430.329 78.5443 428.865 77.6979 427.562 76.6562C426.293 75.582 425.268 74.2474 424.486 72.6523C423.705 71.0573 423.314 69.0716 423.314 66.6953C423.314 64.6771 423.705 62.8379 424.486 61.1777C425.268 59.485 426.326 58.0365 427.66 56.832C428.995 55.6276 430.541 54.6999 432.299 54.0488C434.089 53.3652 435.993 53.0234 438.012 53.0234H441.527C443.546 53.0234 445.45 53.4141 447.24 54.1953C449.031 54.944 450.593 55.9857 451.928 57.3203C453.262 58.6549 454.304 60.2174 455.053 62.0078C455.834 63.7982 456.225 65.7025 456.225 67.7207V67.916L450.219 68.8926V67.3789C450.219 66.1745 449.991 65.0514 449.535 64.0098C449.079 62.9355 448.461 62.0078 447.68 61.2266C446.898 60.4453 445.971 59.8268 444.896 59.3711C443.855 58.9154 442.732 58.6875 441.527 58.6875H438.012C436.807 58.6875 435.668 58.8665 434.594 59.2246C433.552 59.5827 432.641 60.1035 431.859 60.7871C431.078 61.4382 430.46 62.2357 430.004 63.1797C429.548 64.1237 429.32 65.1979 429.32 66.4023C429.32 68.1276 429.711 69.5436 430.492 70.6504C431.273 71.7246 432.299 72.6361 433.568 73.3848C434.87 74.1335 436.335 74.7682 437.963 75.2891C439.623 75.7773 441.299 76.2982 442.992 76.8516C444.717 77.3724 446.394 77.9746 448.021 78.6582C449.682 79.3418 451.146 80.2207 452.416 81.2949C453.718 82.3691 454.76 83.7201 455.541 85.3477C456.322 86.9427 456.713 88.9284 456.713 91.3047ZM486.449 104C484.626 104 482.901 103.658 481.273 102.975C479.678 102.291 478.279 101.347 477.074 100.143C475.902 98.9382 474.958 97.5384 474.242 95.9434C473.559 94.3483 473.217 92.6393 473.217 90.8164V59.7129H464.232V54H473.217V41.9883L479.223 41.0117V54H491.918V59.7129H479.223V91.1094C479.223 92.1185 479.402 93.0625 479.76 93.9414C480.15 94.7878 480.671 95.5365 481.322 96.1875C481.973 96.8385 482.738 97.3594 483.617 97.75C484.496 98.1081 485.44 98.2871 486.449 98.2871H491.918V104H486.449ZM534.398 104L531.078 99.0195C529.711 100.81 528.002 102.258 525.951 103.365C523.9 104.439 521.654 104.977 519.213 104.977H517.699C515.681 104.977 513.777 104.602 511.986 103.854C510.196 103.072 508.633 102.014 507.299 100.68C505.964 99.3451 504.906 97.7826 504.125 95.9922C503.376 94.2018 503.002 92.2975 503.002 90.2793V89.791C503.002 87.7728 503.376 85.8685 504.125 84.0781C504.906 82.2878 505.964 80.7253 507.299 79.3906C508.633 78.056 510.196 77.0143 511.986 76.2656C513.777 75.4844 515.681 75.0938 517.699 75.0938H530.395V67.3789C530.395 66.1745 530.167 65.0514 529.711 64.0098C529.255 62.9355 528.637 62.0078 527.855 61.2266C527.074 60.4453 526.146 59.8268 525.072 59.3711C524.031 58.9154 522.908 58.6875 521.703 58.6875H518.188C516.983 58.6875 515.844 58.9154 514.77 59.3711C513.728 59.8268 512.816 60.4453 512.035 61.2266C511.254 62.0078 510.635 62.9355 510.18 64.0098C509.724 65.0514 509.496 66.1745 509.496 67.3789V69.1855L503.49 68.209V67.7207C503.49 65.7025 503.865 63.7982 504.613 62.0078C505.395 60.2174 506.452 58.6549 507.787 57.3203C509.122 55.9857 510.684 54.944 512.475 54.1953C514.265 53.4141 516.169 53.0234 518.188 53.0234H521.703C523.721 53.0234 525.626 53.4141 527.416 54.1953C529.206 54.944 530.769 55.9857 532.104 57.3203C533.438 58.6549 534.48 60.2174 535.229 62.0078C536.01 63.7982 536.4 65.7025 536.4 67.7207V104H534.398ZM530.395 79.7812H517.699C516.495 79.7812 515.355 80.0091 514.281 80.4648C513.24 80.9206 512.328 81.5553 511.547 82.3691C510.766 83.1504 510.147 84.0781 509.691 85.1523C509.236 86.194 509.008 87.3171 509.008 88.5215V90.6211C509.008 91.8255 509.236 92.9648 509.691 94.0391C510.147 95.0807 510.766 95.9922 511.547 96.7734C512.328 97.5547 513.24 98.1732 514.281 98.6289C515.355 99.0846 516.495 99.3125 517.699 99.3125H521.703C522.908 99.3125 524.031 99.0846 525.072 98.6289C526.146 98.1732 527.074 97.5547 527.855 96.7734C528.637 95.9922 529.255 95.0807 529.711 94.0391C530.167 92.9648 530.395 91.8255 530.395 90.6211V79.7812Z" fill="white"/>
<path d="M274.706 145.954C274.706 147.142 274.478 148.257 274.022 149.299C273.583 150.34 272.973 151.252 272.191 152.033C271.41 152.814 270.491 153.433 269.433 153.889C268.391 154.328 267.276 154.548 266.088 154.548H258.153V168H255.004V132.99H266.088C267.276 132.99 268.391 133.218 269.433 133.674C270.491 134.113 271.41 134.724 272.191 135.505C272.973 136.286 273.583 137.206 274.022 138.264C274.478 139.305 274.706 140.42 274.706 141.608V145.954ZM271.557 141.608C271.557 140.827 271.41 140.103 271.117 139.436C270.824 138.752 270.417 138.158 269.896 137.653C269.392 137.132 268.798 136.726 268.114 136.433C267.447 136.14 266.723 135.993 265.941 135.993H258.153V151.545H265.941C266.723 151.545 267.447 151.398 268.114 151.105C268.798 150.812 269.392 150.414 269.896 149.909C270.417 149.405 270.824 148.819 271.117 148.151C271.41 147.468 271.557 146.735 271.557 145.954V141.608ZM287.084 145.856C286.482 145.856 285.912 145.97 285.375 146.198C284.854 146.426 284.398 146.735 284.008 147.126C283.617 147.517 283.308 147.98 283.08 148.518C282.852 149.038 282.738 149.6 282.738 150.202V168H279.735V143H280.736L282.372 145.539C283.056 144.611 283.91 143.879 284.936 143.342C285.977 142.788 287.108 142.512 288.329 142.512H290.087V145.856H287.084ZM310.79 161.14C310.79 162.149 310.595 163.101 310.204 163.996C309.83 164.891 309.309 165.673 308.642 166.34C307.974 167.007 307.193 167.536 306.298 167.927C305.403 168.301 304.451 168.488 303.441 168.488H301.439C300.43 168.488 299.478 168.301 298.583 167.927C297.688 167.536 296.907 167.007 296.239 166.34C295.572 165.673 295.043 164.891 294.652 163.996C294.278 163.101 294.091 162.149 294.091 161.14V149.86C294.091 148.851 294.278 147.899 294.652 147.004C295.043 146.109 295.572 145.327 296.239 144.66C296.907 143.993 297.688 143.472 298.583 143.098C299.478 142.707 300.43 142.512 301.439 142.512H303.441C304.451 142.512 305.403 142.707 306.298 143.098C307.193 143.472 307.974 143.993 308.642 144.66C309.309 145.327 309.83 146.109 310.204 147.004C310.595 147.899 310.79 148.851 310.79 149.86V161.14ZM307.787 149.689C307.787 149.087 307.673 148.526 307.445 148.005C307.217 147.468 306.908 147.004 306.518 146.613C306.127 146.223 305.663 145.913 305.126 145.686C304.605 145.458 304.044 145.344 303.441 145.344H301.439C300.837 145.344 300.268 145.458 299.73 145.686C299.21 145.913 298.754 146.223 298.363 146.613C297.973 147.004 297.663 147.468 297.436 148.005C297.208 148.526 297.094 149.087 297.094 149.689V161.311C297.094 161.913 297.208 162.482 297.436 163.02C297.663 163.54 297.973 163.996 298.363 164.387C298.754 164.777 299.21 165.087 299.73 165.314C300.268 165.542 300.837 165.656 301.439 165.656H303.441C304.044 165.656 304.605 165.542 305.126 165.314C305.663 165.087 306.127 164.777 306.518 164.387C306.908 163.996 307.217 163.54 307.445 163.02C307.673 162.482 307.787 161.913 307.787 161.311V149.689ZM332.494 168L330.834 165.461C330.15 166.389 329.296 167.129 328.271 167.683C327.245 168.22 326.122 168.488 324.901 168.488H324.145C323.135 168.488 322.183 168.301 321.288 167.927C320.393 167.536 319.612 167.007 318.944 166.34C318.277 165.673 317.748 164.891 317.357 163.996C316.983 163.101 316.796 162.149 316.796 161.14V149.86C316.796 148.851 316.983 147.899 317.357 147.004C317.748 146.109 318.277 145.327 318.944 144.66C319.612 143.993 320.393 143.472 321.288 143.098C322.183 142.707 323.135 142.512 324.145 142.512H324.901C326.024 142.512 327.066 142.74 328.026 143.195C328.987 143.651 329.809 144.286 330.492 145.1V132.99H333.495V168H332.494ZM330.492 149.689C330.492 149.087 330.378 148.526 330.15 148.005C329.923 147.468 329.613 147.004 329.223 146.613C328.832 146.223 328.368 145.913 327.831 145.686C327.31 145.458 326.749 145.344 326.146 145.344H324.145C323.542 145.344 322.973 145.458 322.436 145.686C321.915 145.913 321.459 146.223 321.068 146.613C320.678 147.004 320.368 147.468 320.141 148.005C319.913 148.526 319.799 149.087 319.799 149.689V161.311C319.799 161.913 319.913 162.482 320.141 163.02C320.368 163.54 320.678 163.996 321.068 164.387C321.459 164.777 321.915 165.087 322.436 165.314C322.973 165.542 323.542 165.656 324.145 165.656H326.146C326.749 165.656 327.31 165.542 327.831 165.314C328.368 165.087 328.832 164.777 329.223 164.387C329.613 163.996 329.923 163.54 330.15 163.02C330.378 162.482 330.492 161.913 330.492 161.311V149.689ZM355.199 168L353.539 165.461C352.855 166.389 352.001 167.129 350.976 167.683C349.95 168.22 348.827 168.488 347.606 168.488H346.85C345.84 168.488 344.888 168.301 343.993 167.927C343.098 167.536 342.317 167.007 341.649 166.34C340.982 165.673 340.453 164.891 340.062 163.996C339.688 163.101 339.501 162.149 339.501 161.14V143H342.504V161.311C342.504 161.913 342.618 162.482 342.846 163.02C343.074 163.54 343.383 163.996 343.773 164.387C344.164 164.777 344.62 165.087 345.141 165.314C345.678 165.542 346.247 165.656 346.85 165.656H348.852C349.454 165.656 350.015 165.542 350.536 165.314C351.073 165.087 351.537 164.777 351.928 164.387C352.318 163.996 352.628 163.54 352.855 163.02C353.083 162.482 353.197 161.913 353.197 161.311V143H356.2V168H355.199ZM378.905 161.14C378.905 162.149 378.71 163.101 378.319 163.996C377.945 164.891 377.424 165.673 376.757 166.34C376.09 167.007 375.308 167.536 374.413 167.927C373.518 168.301 372.566 168.488 371.557 168.488H369.555C368.546 168.488 367.593 168.301 366.698 167.927C365.803 167.536 365.022 167.007 364.354 166.34C363.687 165.673 363.158 164.891 362.768 163.996C362.393 163.101 362.206 162.149 362.206 161.14V149.86C362.206 148.851 362.393 147.899 362.768 147.004C363.158 146.109 363.687 145.327 364.354 144.66C365.022 143.993 365.803 143.472 366.698 143.098C367.593 142.707 368.546 142.512 369.555 142.512H371.557C372.566 142.512 373.518 142.707 374.413 143.098C375.308 143.472 376.09 143.993 376.757 144.66C377.424 145.327 377.945 146.109 378.319 147.004C378.71 147.899 378.905 148.851 378.905 149.86V150.861L375.902 151.35V149.689C375.902 149.087 375.788 148.526 375.561 148.005C375.333 147.468 375.023 147.004 374.633 146.613C374.242 146.223 373.778 145.913 373.241 145.686C372.72 145.458 372.159 145.344 371.557 145.344H369.555C368.952 145.344 368.383 145.458 367.846 145.686C367.325 145.913 366.869 146.223 366.479 146.613C366.088 147.004 365.779 147.468 365.551 148.005C365.323 148.526 365.209 149.087 365.209 149.689V161.311C365.209 161.913 365.323 162.482 365.551 163.02C365.779 163.54 366.088 163.996 366.479 164.387C366.869 164.777 367.325 165.087 367.846 165.314C368.383 165.542 368.952 165.656 369.555 165.656H371.557C372.159 165.656 372.72 165.542 373.241 165.314C373.778 165.087 374.242 164.777 374.633 164.387C375.023 163.996 375.333 163.54 375.561 163.02C375.788 162.482 375.902 161.913 375.902 161.311V159.65L378.905 160.139V161.14ZM394.018 168C393.106 168 392.243 167.829 391.43 167.487C390.632 167.146 389.932 166.674 389.33 166.071C388.744 165.469 388.272 164.769 387.914 163.972C387.572 163.174 387.401 162.32 387.401 161.408V145.856H382.909V143H387.401V136.994L390.404 136.506V143H396.752V145.856H390.404V161.555C390.404 162.059 390.494 162.531 390.673 162.971C390.868 163.394 391.129 163.768 391.454 164.094C391.78 164.419 392.162 164.68 392.602 164.875C393.041 165.054 393.513 165.144 394.018 165.144H396.752V168H394.018ZM403.051 136.994V132.99H406.542V136.994H403.051ZM403.295 168V143H406.298V168H403.295ZM430.028 161.14C430.028 162.149 429.833 163.101 429.442 163.996C429.068 164.891 428.547 165.673 427.88 166.34C427.213 167.007 426.431 167.536 425.536 167.927C424.641 168.301 423.689 168.488 422.68 168.488H420.678C419.669 168.488 418.716 168.301 417.821 167.927C416.926 167.536 416.145 167.007 415.478 166.34C414.81 165.673 414.281 164.891 413.891 163.996C413.516 163.101 413.329 162.149 413.329 161.14V149.86C413.329 148.851 413.516 147.899 413.891 147.004C414.281 146.109 414.81 145.327 415.478 144.66C416.145 143.993 416.926 143.472 417.821 143.098C418.716 142.707 419.669 142.512 420.678 142.512H422.68C423.689 142.512 424.641 142.707 425.536 143.098C426.431 143.472 427.213 143.993 427.88 144.66C428.547 145.327 429.068 146.109 429.442 147.004C429.833 147.899 430.028 148.851 430.028 149.86V161.14ZM427.025 149.689C427.025 149.087 426.911 148.526 426.684 148.005C426.456 147.468 426.146 147.004 425.756 146.613C425.365 146.223 424.901 145.913 424.364 145.686C423.843 145.458 423.282 145.344 422.68 145.344H420.678C420.076 145.344 419.506 145.458 418.969 145.686C418.448 145.913 417.992 146.223 417.602 146.613C417.211 147.004 416.902 147.468 416.674 148.005C416.446 148.526 416.332 149.087 416.332 149.689V161.311C416.332 161.913 416.446 162.482 416.674 163.02C416.902 163.54 417.211 163.996 417.602 164.387C417.992 164.777 418.448 165.087 418.969 165.314C419.506 165.542 420.076 165.656 420.678 165.656H422.68C423.282 165.656 423.843 165.542 424.364 165.314C424.901 165.087 425.365 164.777 425.756 164.387C426.146 163.996 426.456 163.54 426.684 163.02C426.911 162.482 427.025 161.913 427.025 161.311V149.689ZM449.73 168V149.689C449.73 149.087 449.617 148.526 449.389 148.005C449.161 147.468 448.852 147.004 448.461 146.613C448.07 146.223 447.606 145.913 447.069 145.686C446.549 145.458 445.987 145.344 445.385 145.344H443.383C442.781 145.344 442.211 145.458 441.674 145.686C441.153 145.913 440.697 146.223 440.307 146.613C439.916 147.004 439.607 147.468 439.379 148.005C439.151 148.526 439.037 149.087 439.037 149.689V168H436.034V143H437.035L438.671 145.539C439.354 144.611 440.209 143.879 441.234 143.342C442.276 142.788 443.407 142.512 444.628 142.512H445.385C446.394 142.512 447.346 142.707 448.241 143.098C449.136 143.472 449.918 143.993 450.585 144.66C451.252 145.327 451.773 146.109 452.147 147.004C452.538 147.899 452.733 148.851 452.733 149.86V168H449.73ZM475.927 161.652C475.927 162.661 475.723 163.589 475.316 164.436C474.91 165.266 474.356 165.982 473.656 166.584C472.956 167.186 472.143 167.658 471.215 168C470.303 168.326 469.343 168.488 468.334 168.488H466.332C465.323 168.488 464.354 168.301 463.427 167.927C462.515 167.536 461.71 167.007 461.01 166.34C460.326 165.673 459.773 164.891 459.35 163.996C458.943 163.101 458.739 162.149 458.739 161.14V160.139L461.742 159.65V161.311C461.742 161.913 461.864 162.482 462.108 163.02C462.369 163.54 462.711 163.996 463.134 164.387C463.557 164.777 464.045 165.087 464.599 165.314C465.152 165.542 465.73 165.656 466.332 165.656H468.334C468.936 165.656 469.514 165.567 470.067 165.388C470.621 165.209 471.109 164.956 471.532 164.631C471.972 164.289 472.313 163.882 472.558 163.41C472.818 162.938 472.948 162.401 472.948 161.799C472.948 160.904 472.753 160.171 472.362 159.602C471.972 159.032 471.451 158.56 470.8 158.186C470.165 157.795 469.433 157.478 468.603 157.233C467.789 156.973 466.951 156.721 466.088 156.477C465.225 156.216 464.379 155.923 463.549 155.598C462.735 155.272 462.003 154.849 461.352 154.328C460.717 153.791 460.204 153.124 459.813 152.326C459.423 151.529 459.228 150.536 459.228 149.348C459.228 148.339 459.423 147.419 459.813 146.589C460.204 145.743 460.733 145.018 461.4 144.416C462.068 143.814 462.841 143.35 463.72 143.024C464.615 142.683 465.567 142.512 466.576 142.512H468.334C469.343 142.512 470.295 142.707 471.19 143.098C472.086 143.472 472.867 143.993 473.534 144.66C474.201 145.327 474.722 146.109 475.097 147.004C475.487 147.899 475.683 148.851 475.683 149.86V149.958L472.68 150.446V149.689C472.68 149.087 472.566 148.526 472.338 148.005C472.11 147.468 471.801 147.004 471.41 146.613C471.02 146.223 470.556 145.913 470.019 145.686C469.498 145.458 468.936 145.344 468.334 145.344H466.576C465.974 145.344 465.404 145.433 464.867 145.612C464.346 145.791 463.891 146.052 463.5 146.394C463.109 146.719 462.8 147.118 462.572 147.59C462.344 148.062 462.23 148.599 462.23 149.201C462.23 150.064 462.426 150.772 462.816 151.325C463.207 151.862 463.72 152.318 464.354 152.692C465.006 153.067 465.738 153.384 466.552 153.645C467.382 153.889 468.22 154.149 469.066 154.426C469.929 154.686 470.767 154.987 471.581 155.329C472.411 155.671 473.144 156.11 473.778 156.647C474.429 157.185 474.95 157.86 475.341 158.674C475.731 159.471 475.927 160.464 475.927 161.652Z" fill="white" fill-opacity="0.5"/>
<defs>
<linearGradient id="paint0_linear_2_52" x1="43.3198" y1="0.277601" x2="88.3784" y2="197.781" gradientUnits="userSpaceOnUse">
<stop stop-color="#01F7A1"/>
<stop offset="1" stop-color="#1DD9FE"/>
</linearGradient>
<linearGradient id="paint1_linear_2_52" x1="43.3198" y1="0.277601" x2="88.3784" y2="197.781" gradientUnits="userSpaceOnUse">
<stop stop-color="#01F7A1"/>
<stop offset="1" stop-color="#1DD9FE"/>
</linearGradient>
<linearGradient id="paint2_linear_2_52" x1="43.3198" y1="0.277601" x2="88.3784" y2="197.781" gradientUnits="userSpaceOnUse">
<stop stop-color="#01F7A1"/>
<stop offset="1" stop-color="#1DD9FE"/>
</linearGradient>
<linearGradient id="paint3_linear_2_52" x1="43.3198" y1="0.277601" x2="88.3784" y2="197.781" gradientUnits="userSpaceOnUse">
<stop stop-color="#01F7A1"/>
<stop offset="1" stop-color="#1DD9FE"/>
</linearGradient>
</defs>
</svg>
