<?xml version="1.0" standalone="no"?>
<!DOCTYPE svg PUBLIC "-//W3C//DTD SVG 20010904//EN"
 "http://www.w3.org/TR/2001/REC-SVG-20010904/DTD/svg10.dtd">
<svg version="1.0" xmlns="http://www.w3.org/2000/svg"
 width="373.000000pt" height="373.000000pt" viewBox="0 0 373.000000 373.000000"
 preserveAspectRatio="xMidYMid meet">
<metadata>
Created by potrace 1.14, written by Peter Selinger 2001-2017
</metadata>
<g transform="translate(0.000000,373.000000) scale(0.100000,-0.100000)"
fill="#000000" stroke="none">
<path d="M919 3720 c-20 -12 -30 -35 -68 -170 -52 -180 -163 -574 -166 -590
-2 -8 -28 -103 -59 -210 -138 -487 -177 -636 -174 -669 2 -24 12 -40 31 -55
28 -21 31 -21 852 -21 809 0 823 0 845 20 12 11 27 31 32 45 9 24 201 704 350
1240 89 319 95 352 78 384 -7 14 -23 27 -36 30 -40 10 -1667 6 -1685 -4z"/>
<path d="M2746 2982 c-72 -4 -101 -22 -120 -75 -9 -23 -59 -197 -112 -387 -53
-190 -101 -362 -107 -382 -14 -47 -2 -84 36 -112 28 -20 39 -21 448 -23 278
-1 430 2 450 9 21 7 36 22 46 46 16 39 190 641 207 717 1 6 8 35 16 66 16 73
8 104 -33 125 -28 15 -77 17 -402 18 -203 1 -396 0 -429 -2z"/>
<path d="M366 1731 c-33 -20 -36 -27 -136 -386 -34 -121 -75 -267 -92 -325
-49 -174 -46 -218 17 -244 11 -5 207 -10 436 -13 501 -6 476 -11 510 99 13 40
24 78 25 83 1 6 30 107 64 225 33 118 74 262 91 320 41 144 45 181 25 213 -10
14 -25 29 -34 33 -9 4 -211 8 -449 9 -375 1 -435 -1 -457 -14z"/>
<path d="M1542 1727 c-27 -12 -29 -18 -112 -317 -39 -140 -77 -275 -85 -300
-7 -25 -34 -121 -60 -215 -26 -93 -83 -296 -127 -450 -86 -305 -98 -366 -78
-390 39 -48 34 -47 689 -46 926 2 994 3 1018 14 33 15 48 53 128 342 42 149
91 324 110 390 171 608 245 881 245 907 0 14 -9 36 -19 49 l-19 24 -835 0
c-475 0 -844 -3 -855 -8z"/>
</g>
</svg>
