<svg width="409" height="409" viewBox="0 0 409 409" fill="none" xmlns="http://www.w3.org/2000/svg">
<path d="M-8.93898e-06 204.5C-4.00212e-06 317.442 91.5578 409 204.5 409L204.5 204.5L-8.93898e-06 204.5Z" fill="url(#paint0_linear_12_1997)"/>
<path d="M306.75 306.75C306.75 250.279 260.971 204.5 204.5 204.5L204.5 409C260.971 409 306.75 363.221 306.75 306.75Z" fill="url(#paint1_linear_12_1997)"/>
<path d="M102.25 306.75C102.25 363.221 148.029 409 204.5 409L204.5 204.5C148.029 204.5 102.25 250.279 102.25 306.75Z" fill="url(#paint2_linear_12_1997)"/>
<path d="M409 204.5C409 91.5578 317.442 -4.00212e-06 204.5 -8.93898e-06L204.5 204.5L409 204.5Z" fill="url(#paint3_linear_12_1997)"/>
<path d="M204.5 0C91.5578 0 0 91.5578 0 204.5H204.5V0Z" fill="url(#paint4_linear_12_1997)"/>
<defs>
<linearGradient id="paint0_linear_12_1997" x1="0" y1="409" x2="204.5" y2="204.5" gradientUnits="userSpaceOnUse">
<stop stop-color="#0269A2"/>
<stop offset="1" stop-color="#00DAE8"/>
</linearGradient>
<linearGradient id="paint1_linear_12_1997" x1="350.654" y1="409" x2="204.5" y2="204.5" gradientUnits="userSpaceOnUse">
<stop stop-color="#07BFFF"/>
<stop offset="1" stop-color="#005182"/>
</linearGradient>
<linearGradient id="paint2_linear_12_1997" x1="204.5" y1="204.5" x2="204.5" y2="409" gradientUnits="userSpaceOnUse">
<stop stop-color="#00DBE8"/>
<stop offset="1" stop-color="#00ADDE"/>
</linearGradient>
<linearGradient id="paint3_linear_12_1997" x1="376.072" y1="42.4597" x2="183.415" y2="222.986" gradientUnits="userSpaceOnUse">
<stop stop-color="#2A75B9"/>
<stop offset="1" stop-color="#00E5E8"/>
</linearGradient>
<linearGradient id="paint4_linear_12_1997" x1="49.1031" y1="14.4421" x2="204.5" y2="204.5" gradientUnits="userSpaceOnUse">
<stop stop-color="#00C9FF"/>
<stop offset="1" stop-color="#004A77"/>
</linearGradient>
</defs>
</svg>
