<svg width="360" height="311" viewBox="0 0 360 311" fill="none" xmlns="http://www.w3.org/2000/svg">
<path d="M0 35.5628H17.4419V269.161H0V35.5628Z" fill="url(#paint0_linear_37_4732)"/>
<path d="M188.372 35.5628H215.581V106.688H188.372V35.5628Z" fill="url(#paint1_linear_37_4732)"/>
<path d="M188.372 200.128H215.581V262.886H188.372V200.128Z" fill="url(#paint2_linear_37_4732)"/>
<path d="M30.6977 35.5628H43.9535V106.688H30.6977V35.5628Z" fill="url(#paint3_linear_37_4732)"/>
<path d="M30.6977 205.706H43.9535V306.816H30.6977V205.706Z" fill="url(#paint4_linear_37_4732)"/>
<path d="M148.605 35.5628H167.442V106.688H148.605V35.5628Z" fill="url(#paint5_linear_37_4732)"/>
<path d="M148.605 200.128H167.442V262.886H148.605V200.128Z" fill="url(#paint6_linear_37_4732)"/>
<path d="M300 35.5628H320.233V106.688H300V35.5628Z" fill="url(#paint7_linear_37_4732)"/>
<path d="M300 200.128H320.233V262.886H300V200.128Z" fill="url(#paint8_linear_37_4732)"/>
<path d="M348.14 35.5628H360V269.161H348.14V35.5628Z" fill="url(#paint9_linear_37_4732)"/>
<path d="M265.814 35.5628H279.07V106.688H265.814V35.5628Z" fill="url(#paint10_linear_37_4732)"/>
<path d="M265.814 186.182H279.07V311H265.814V186.182Z" fill="url(#paint11_linear_37_4732)"/>
<path d="M233.721 35.5628H245.581V106.688H233.721V35.5628Z" fill="url(#paint12_linear_37_4732)"/>
<path d="M233.721 200.128H245.581V262.886H233.721V200.128Z" fill="url(#paint13_linear_37_4732)"/>
<path d="M51.6279 11.157H73.9535V117.845H51.6279V11.157Z" fill="url(#paint14_linear_37_4732)"/>
<path d="M51.6279 200.128H73.9535V262.886H51.6279V200.128Z" fill="url(#paint15_linear_37_4732)"/>
<path d="M86.5116 35.5628H99.7674V106.688H86.5116V35.5628Z" fill="url(#paint16_linear_37_4732)"/>
<path d="M86.5116 200.128H99.7674V262.886H86.5116V200.128Z" fill="url(#paint17_linear_37_4732)"/>
<path d="M126.977 35.5628H138.837V106.688H126.977V35.5628Z" fill="url(#paint18_linear_37_4732)"/>
<path d="M126.977 200.128H138.837V262.886H126.977V200.128Z" fill="url(#paint19_linear_37_4732)"/>
<path d="M107.442 23.0112H113.023V106.688H107.442V23.0112Z" fill="url(#paint20_linear_37_4732)"/>
<path d="M107.442 186.182H113.023V262.886H107.442V186.182Z" fill="url(#paint21_linear_37_4732)"/>
<path d="M175.116 35.5628H181.395V106.688H175.116V35.5628Z" fill="url(#paint22_linear_37_4732)"/>
<path d="M175.116 186.182H181.395V281.713H175.116V186.182Z" fill="url(#paint23_linear_37_4732)"/>
<path d="M220.465 0H227.442V116.451H220.465V0Z" fill="url(#paint24_linear_37_4732)"/>
<path d="M220.465 200.128H227.442V262.886H220.465V200.128Z" fill="url(#paint25_linear_37_4732)"/>
<path d="M286.744 35.5628H292.326V106.688H286.744V35.5628Z" fill="url(#paint26_linear_37_4732)"/>
<path d="M286.744 200.128H292.326V262.886H286.744V200.128Z" fill="url(#paint27_linear_37_4732)"/>
<path d="M333.488 23.0112H340.465V269.161H333.488V23.0112Z" fill="url(#paint28_linear_37_4732)"/>
<path d="M55.0782 174.659C51.7773 174.659 49.3466 173.803 47.7862 172.09C46.2258 170.364 45.4456 167.829 45.4456 164.488V137.566H53.1427V164.195C53.1427 164.808 53.1802 165.4 53.2552 165.971C53.3302 166.528 53.5028 166.987 53.7729 167.349C54.0429 167.711 54.4781 167.892 55.0782 167.892C55.6934 167.892 56.136 167.718 56.4061 167.37C56.6762 167.008 56.8412 166.542 56.9012 165.971C56.9763 165.4 57.0138 164.808 57.0138 164.195V137.566H64.7109V164.488C64.7109 167.829 63.9307 170.364 62.3703 172.09C60.8098 173.803 58.3792 174.659 55.0782 174.659Z" fill="url(#paint29_linear_37_4732)"/>
<path d="M72.1281 174.325V137.566H82.5935C84.7841 137.566 86.5171 138.019 87.7924 138.924C89.0828 139.829 90.0055 141.117 90.5607 142.788C91.1158 144.458 91.3934 146.45 91.3934 148.761C91.3934 150.989 91.1609 152.931 90.6957 154.588C90.2306 156.231 89.3979 157.505 88.1975 158.41C87.0122 159.315 85.3242 159.768 83.1336 159.768H79.9152V174.325H72.1281ZM79.9152 153.168H80.3654C81.8358 153.168 82.736 152.785 83.0661 152.019C83.3962 151.253 83.5612 150.125 83.5612 148.636C83.5612 147.243 83.3962 146.171 83.0661 145.419C82.751 144.653 81.9933 144.271 80.793 144.271H79.9152V153.168Z" fill="url(#paint30_linear_37_4732)"/>
<path d="M107.701 174.659C104.085 174.659 101.474 173.824 99.8684 172.153C98.2779 170.482 97.4827 167.822 97.4827 164.174V160.582H105.315V165.177C105.315 166.026 105.45 166.695 105.72 167.182C106.005 167.655 106.493 167.892 107.183 167.892C107.903 167.892 108.398 167.697 108.668 167.307C108.953 166.917 109.096 166.277 109.096 165.386C109.096 164.258 108.976 163.318 108.736 162.566C108.496 161.8 108.076 161.076 107.475 160.394C106.89 159.698 106.073 158.89 105.022 157.971L101.466 154.839C98.8106 152.513 97.4827 149.854 97.4827 146.86C97.4827 143.727 98.2629 141.34 99.8234 139.697C101.399 138.054 103.672 137.232 106.643 137.232C110.274 137.232 112.847 138.13 114.362 139.926C115.893 141.722 116.658 144.452 116.658 148.113H108.601V145.586C108.601 145.085 108.443 144.695 108.128 144.417C107.828 144.138 107.415 143.999 106.89 143.999C106.26 143.999 105.795 144.166 105.495 144.5C105.21 144.821 105.067 145.238 105.067 145.753C105.067 146.269 105.217 146.826 105.517 147.424C105.818 148.023 106.41 148.712 107.295 149.492L111.864 153.565C112.779 154.372 113.62 155.228 114.385 156.134C115.15 157.025 115.765 158.069 116.23 159.266C116.696 160.45 116.928 161.898 116.928 163.611C116.928 167.064 116.238 169.772 114.858 171.735C113.492 173.684 111.107 174.659 107.701 174.659Z" fill="url(#paint31_linear_37_4732)"/>
<path d="M123.603 174.325V137.566H131.255V174.325H123.603Z" fill="url(#paint32_linear_37_4732)"/>
<path d="M138.784 174.325V137.566H149.677C152.528 137.566 154.674 138.304 156.114 139.78C157.555 141.242 158.275 143.386 158.275 146.213V163.423C158.275 166.904 157.615 169.591 156.294 171.484C154.989 173.378 152.693 174.325 149.407 174.325H138.784ZM146.752 167.829H148.124C149.58 167.829 150.308 167.175 150.308 165.866V146.902C150.308 145.677 150.128 144.89 149.767 144.542C149.422 144.18 148.71 143.999 147.629 143.999H146.752V167.829Z" fill="url(#paint33_linear_37_4732)"/>
<path d="M165.895 174.325V137.566H181.739V144.667H173.952V151.831H181.424V158.744H173.952V167.161H182.257V174.325H165.895Z" fill="url(#paint34_linear_37_4732)"/>
<path d="M204.45 174.325V137.566H215.343C218.194 137.566 220.34 138.304 221.78 139.78C223.221 141.242 223.941 143.386 223.941 146.213V163.423C223.941 166.904 223.281 169.591 221.96 171.484C220.655 173.378 218.359 174.325 215.073 174.325H204.45ZM212.418 167.829H213.791C215.246 167.829 215.974 167.175 215.974 165.866V146.902C215.974 145.677 215.794 144.89 215.433 144.542C215.088 144.18 214.376 143.999 213.295 143.999H212.418V167.829Z" fill="url(#paint35_linear_37_4732)"/>
<path d="M241.013 174.659C237.847 174.659 235.424 173.775 233.744 172.007C232.078 170.224 231.245 167.655 231.245 164.3V146.839C231.245 143.693 232.071 141.305 233.721 139.676C235.387 138.047 237.817 137.232 241.013 137.232C244.209 137.232 246.632 138.047 248.283 139.676C249.948 141.305 250.781 143.693 250.781 146.839V164.3C250.781 167.655 249.941 170.224 248.26 172.007C246.595 173.775 244.179 174.659 241.013 174.659ZM241.081 167.892C242.281 167.892 242.881 166.813 242.881 164.655V146.714C242.881 144.904 242.296 143.999 241.126 143.999C239.805 143.999 239.145 144.925 239.145 146.777V164.697C239.145 165.838 239.295 166.66 239.595 167.161C239.895 167.648 240.391 167.892 241.081 167.892Z" fill="url(#paint36_linear_37_4732)"/>
<path d="M261.462 174.325L257.208 137.566H264.95L267.133 160.77L269.361 137.566H276.743L278.859 160.77L280.974 137.566H288.807L284.485 174.325H274.988L273.007 156.635L271.117 174.325H261.462Z" fill="url(#paint37_linear_37_4732)"/>
<path d="M295.898 137.662V174.417H303.715L307.213 156.812V174.417H314.554V137.662H307.126L303.326 156.039V137.662H295.898Z" fill="url(#paint38_linear_37_4732)"/>
<defs>
<linearGradient id="paint0_linear_37_4732" x1="336.977" y1="23.0112" x2="336.977" y2="269.161" gradientUnits="userSpaceOnUse">
<stop stop-color="#A00000"/>
<stop offset="0.510417" stop-color="#C30000"/>
<stop offset="1" stop-color="#A00000"/>
</linearGradient>
<linearGradient id="paint1_linear_37_4732" x1="336.977" y1="23.0112" x2="336.977" y2="269.161" gradientUnits="userSpaceOnUse">
<stop stop-color="#A00000"/>
<stop offset="0.510417" stop-color="#C30000"/>
<stop offset="1" stop-color="#A00000"/>
</linearGradient>
<linearGradient id="paint2_linear_37_4732" x1="336.977" y1="23.0112" x2="336.977" y2="269.161" gradientUnits="userSpaceOnUse">
<stop stop-color="#A00000"/>
<stop offset="0.510417" stop-color="#C30000"/>
<stop offset="1" stop-color="#A00000"/>
</linearGradient>
<linearGradient id="paint3_linear_37_4732" x1="336.977" y1="23.0112" x2="336.977" y2="269.161" gradientUnits="userSpaceOnUse">
<stop stop-color="#A00000"/>
<stop offset="0.510417" stop-color="#C30000"/>
<stop offset="1" stop-color="#A00000"/>
</linearGradient>
<linearGradient id="paint4_linear_37_4732" x1="336.977" y1="23.0112" x2="336.977" y2="269.161" gradientUnits="userSpaceOnUse">
<stop stop-color="#A00000"/>
<stop offset="0.510417" stop-color="#C30000"/>
<stop offset="1" stop-color="#A00000"/>
</linearGradient>
<linearGradient id="paint5_linear_37_4732" x1="336.977" y1="23.0112" x2="336.977" y2="269.161" gradientUnits="userSpaceOnUse">
<stop stop-color="#A00000"/>
<stop offset="0.510417" stop-color="#C30000"/>
<stop offset="1" stop-color="#A00000"/>
</linearGradient>
<linearGradient id="paint6_linear_37_4732" x1="336.977" y1="23.0112" x2="336.977" y2="269.161" gradientUnits="userSpaceOnUse">
<stop stop-color="#A00000"/>
<stop offset="0.510417" stop-color="#C30000"/>
<stop offset="1" stop-color="#A00000"/>
</linearGradient>
<linearGradient id="paint7_linear_37_4732" x1="336.977" y1="23.0112" x2="336.977" y2="269.161" gradientUnits="userSpaceOnUse">
<stop stop-color="#A00000"/>
<stop offset="0.510417" stop-color="#C30000"/>
<stop offset="1" stop-color="#A00000"/>
</linearGradient>
<linearGradient id="paint8_linear_37_4732" x1="336.977" y1="23.0112" x2="336.977" y2="269.161" gradientUnits="userSpaceOnUse">
<stop stop-color="#A00000"/>
<stop offset="0.510417" stop-color="#C30000"/>
<stop offset="1" stop-color="#A00000"/>
</linearGradient>
<linearGradient id="paint9_linear_37_4732" x1="336.977" y1="23.0112" x2="336.977" y2="269.161" gradientUnits="userSpaceOnUse">
<stop stop-color="#A00000"/>
<stop offset="0.510417" stop-color="#C30000"/>
<stop offset="1" stop-color="#A00000"/>
</linearGradient>
<linearGradient id="paint10_linear_37_4732" x1="336.977" y1="23.0112" x2="336.977" y2="269.161" gradientUnits="userSpaceOnUse">
<stop stop-color="#A00000"/>
<stop offset="0.510417" stop-color="#C30000"/>
<stop offset="1" stop-color="#A00000"/>
</linearGradient>
<linearGradient id="paint11_linear_37_4732" x1="336.977" y1="23.0112" x2="336.977" y2="269.161" gradientUnits="userSpaceOnUse">
<stop stop-color="#A00000"/>
<stop offset="0.510417" stop-color="#C30000"/>
<stop offset="1" stop-color="#A00000"/>
</linearGradient>
<linearGradient id="paint12_linear_37_4732" x1="336.977" y1="23.0112" x2="336.977" y2="269.161" gradientUnits="userSpaceOnUse">
<stop stop-color="#A00000"/>
<stop offset="0.510417" stop-color="#C30000"/>
<stop offset="1" stop-color="#A00000"/>
</linearGradient>
<linearGradient id="paint13_linear_37_4732" x1="336.977" y1="23.0112" x2="336.977" y2="269.161" gradientUnits="userSpaceOnUse">
<stop stop-color="#A00000"/>
<stop offset="0.510417" stop-color="#C30000"/>
<stop offset="1" stop-color="#A00000"/>
</linearGradient>
<linearGradient id="paint14_linear_37_4732" x1="336.977" y1="23.0112" x2="336.977" y2="269.161" gradientUnits="userSpaceOnUse">
<stop stop-color="#A00000"/>
<stop offset="0.510417" stop-color="#C30000"/>
<stop offset="1" stop-color="#A00000"/>
</linearGradient>
<linearGradient id="paint15_linear_37_4732" x1="336.977" y1="23.0112" x2="336.977" y2="269.161" gradientUnits="userSpaceOnUse">
<stop stop-color="#A00000"/>
<stop offset="0.510417" stop-color="#C30000"/>
<stop offset="1" stop-color="#A00000"/>
</linearGradient>
<linearGradient id="paint16_linear_37_4732" x1="336.977" y1="23.0112" x2="336.977" y2="269.161" gradientUnits="userSpaceOnUse">
<stop stop-color="#A00000"/>
<stop offset="0.510417" stop-color="#C30000"/>
<stop offset="1" stop-color="#A00000"/>
</linearGradient>
<linearGradient id="paint17_linear_37_4732" x1="336.977" y1="23.0112" x2="336.977" y2="269.161" gradientUnits="userSpaceOnUse">
<stop stop-color="#A00000"/>
<stop offset="0.510417" stop-color="#C30000"/>
<stop offset="1" stop-color="#A00000"/>
</linearGradient>
<linearGradient id="paint18_linear_37_4732" x1="336.977" y1="23.0112" x2="336.977" y2="269.161" gradientUnits="userSpaceOnUse">
<stop stop-color="#A00000"/>
<stop offset="0.510417" stop-color="#C30000"/>
<stop offset="1" stop-color="#A00000"/>
</linearGradient>
<linearGradient id="paint19_linear_37_4732" x1="336.977" y1="23.0112" x2="336.977" y2="269.161" gradientUnits="userSpaceOnUse">
<stop stop-color="#A00000"/>
<stop offset="0.510417" stop-color="#C30000"/>
<stop offset="1" stop-color="#A00000"/>
</linearGradient>
<linearGradient id="paint20_linear_37_4732" x1="336.977" y1="23.0112" x2="336.977" y2="269.161" gradientUnits="userSpaceOnUse">
<stop stop-color="#A00000"/>
<stop offset="0.510417" stop-color="#C30000"/>
<stop offset="1" stop-color="#A00000"/>
</linearGradient>
<linearGradient id="paint21_linear_37_4732" x1="336.977" y1="23.0112" x2="336.977" y2="269.161" gradientUnits="userSpaceOnUse">
<stop stop-color="#A00000"/>
<stop offset="0.510417" stop-color="#C30000"/>
<stop offset="1" stop-color="#A00000"/>
</linearGradient>
<linearGradient id="paint22_linear_37_4732" x1="336.977" y1="23.0112" x2="336.977" y2="269.161" gradientUnits="userSpaceOnUse">
<stop stop-color="#A00000"/>
<stop offset="0.510417" stop-color="#C30000"/>
<stop offset="1" stop-color="#A00000"/>
</linearGradient>
<linearGradient id="paint23_linear_37_4732" x1="336.977" y1="23.0112" x2="336.977" y2="269.161" gradientUnits="userSpaceOnUse">
<stop stop-color="#A00000"/>
<stop offset="0.510417" stop-color="#C30000"/>
<stop offset="1" stop-color="#A00000"/>
</linearGradient>
<linearGradient id="paint24_linear_37_4732" x1="336.977" y1="23.0112" x2="336.977" y2="269.161" gradientUnits="userSpaceOnUse">
<stop stop-color="#A00000"/>
<stop offset="0.510417" stop-color="#C30000"/>
<stop offset="1" stop-color="#A00000"/>
</linearGradient>
<linearGradient id="paint25_linear_37_4732" x1="336.977" y1="23.0112" x2="336.977" y2="269.161" gradientUnits="userSpaceOnUse">
<stop stop-color="#A00000"/>
<stop offset="0.510417" stop-color="#C30000"/>
<stop offset="1" stop-color="#A00000"/>
</linearGradient>
<linearGradient id="paint26_linear_37_4732" x1="336.977" y1="23.0112" x2="336.977" y2="269.161" gradientUnits="userSpaceOnUse">
<stop stop-color="#A00000"/>
<stop offset="0.510417" stop-color="#C30000"/>
<stop offset="1" stop-color="#A00000"/>
</linearGradient>
<linearGradient id="paint27_linear_37_4732" x1="336.977" y1="23.0112" x2="336.977" y2="269.161" gradientUnits="userSpaceOnUse">
<stop stop-color="#A00000"/>
<stop offset="0.510417" stop-color="#C30000"/>
<stop offset="1" stop-color="#A00000"/>
</linearGradient>
<linearGradient id="paint28_linear_37_4732" x1="336.977" y1="23.0112" x2="336.977" y2="269.161" gradientUnits="userSpaceOnUse">
<stop stop-color="#A00000"/>
<stop offset="0.510417" stop-color="#C30000"/>
<stop offset="1" stop-color="#A00000"/>
</linearGradient>
<linearGradient id="paint29_linear_37_4732" x1="180" y1="137.232" x2="180" y2="174.659" gradientUnits="userSpaceOnUse">
<stop stop-color="#BEBEBE"/>
<stop offset="0.5" stop-color="white"/>
<stop offset="1" stop-color="#C4C4C4"/>
<stop offset="1" stop-color="#BEBEBE"/>
</linearGradient>
<linearGradient id="paint30_linear_37_4732" x1="180" y1="137.232" x2="180" y2="174.659" gradientUnits="userSpaceOnUse">
<stop stop-color="#BEBEBE"/>
<stop offset="0.5" stop-color="white"/>
<stop offset="1" stop-color="#C4C4C4"/>
<stop offset="1" stop-color="#BEBEBE"/>
</linearGradient>
<linearGradient id="paint31_linear_37_4732" x1="180" y1="137.232" x2="180" y2="174.659" gradientUnits="userSpaceOnUse">
<stop stop-color="#BEBEBE"/>
<stop offset="0.5" stop-color="white"/>
<stop offset="1" stop-color="#C4C4C4"/>
<stop offset="1" stop-color="#BEBEBE"/>
</linearGradient>
<linearGradient id="paint32_linear_37_4732" x1="180" y1="137.232" x2="180" y2="174.659" gradientUnits="userSpaceOnUse">
<stop stop-color="#BEBEBE"/>
<stop offset="0.5" stop-color="white"/>
<stop offset="1" stop-color="#C4C4C4"/>
<stop offset="1" stop-color="#BEBEBE"/>
</linearGradient>
<linearGradient id="paint33_linear_37_4732" x1="180" y1="137.232" x2="180" y2="174.659" gradientUnits="userSpaceOnUse">
<stop stop-color="#BEBEBE"/>
<stop offset="0.5" stop-color="white"/>
<stop offset="1" stop-color="#C4C4C4"/>
<stop offset="1" stop-color="#BEBEBE"/>
</linearGradient>
<linearGradient id="paint34_linear_37_4732" x1="180" y1="137.232" x2="180" y2="174.659" gradientUnits="userSpaceOnUse">
<stop stop-color="#BEBEBE"/>
<stop offset="0.5" stop-color="white"/>
<stop offset="1" stop-color="#C4C4C4"/>
<stop offset="1" stop-color="#BEBEBE"/>
</linearGradient>
<linearGradient id="paint35_linear_37_4732" x1="180" y1="137.232" x2="180" y2="174.659" gradientUnits="userSpaceOnUse">
<stop stop-color="#BEBEBE"/>
<stop offset="0.5" stop-color="white"/>
<stop offset="1" stop-color="#C4C4C4"/>
<stop offset="1" stop-color="#BEBEBE"/>
</linearGradient>
<linearGradient id="paint36_linear_37_4732" x1="180" y1="137.232" x2="180" y2="174.659" gradientUnits="userSpaceOnUse">
<stop stop-color="#BEBEBE"/>
<stop offset="0.5" stop-color="white"/>
<stop offset="1" stop-color="#C4C4C4"/>
<stop offset="1" stop-color="#BEBEBE"/>
</linearGradient>
<linearGradient id="paint37_linear_37_4732" x1="180" y1="137.232" x2="180" y2="174.659" gradientUnits="userSpaceOnUse">
<stop stop-color="#BEBEBE"/>
<stop offset="0.5" stop-color="white"/>
<stop offset="1" stop-color="#C4C4C4"/>
<stop offset="1" stop-color="#BEBEBE"/>
</linearGradient>
<linearGradient id="paint38_linear_37_4732" x1="180" y1="137.232" x2="180" y2="174.659" gradientUnits="userSpaceOnUse">
<stop stop-color="#BEBEBE"/>
<stop offset="0.5" stop-color="white"/>
<stop offset="1" stop-color="#C4C4C4"/>
<stop offset="1" stop-color="#BEBEBE"/>
</linearGradient>
</defs>
</svg>
